<svg width="512" height="512" xmlns="http://www.w3.org/2000/svg">

 <g>
  <title>background</title>
  <rect fill="none" id="canvas_background" height="10" width="10" y="-1" x="-1"/>
 </g>
 <g>
  <title>Layer 1</title>
  <path stroke="#000" fill="#bcdbda" id="svg_5" d="m396,67.801498l-28,0l0,-12c0,-4.418 -3.582,-8 -8,-8l-82,0c-4.418,0 -8,3.582 -8,8l0,12l-154,0c-4.418,0 -8,3.582 -8,8l0,378c0,4.418 3.582,8 8,8l280,0c4.418,0 8,-3.582 8,-8l0,-378c0,-4.418 -3.582,-8 -8,-8zm-110,-4l66,0l0,127.756l-26.36,-39.219c-1.486,-2.211 -3.976,-3.537 -6.64,-3.537s-5.153,1.326 -6.64,3.537l-26.36,39.219l0,-127.756zm-162,20l29,0l0,362l-29,0l0,-362zm264,362l-219,0l0,-362l101,0l0,134c0,3.52 2.301,6.626 5.667,7.652c3.371,1.026 7.01,-0.27 8.973,-3.189l34.36,-51.122l34.36,51.122c1.514,2.252 4.025,3.538 6.641,3.538c0.775,0 1.562,-0.113 2.332,-0.348c3.366,-1.027 5.667,-4.133 5.667,-7.653l0,-134l20,0l0,362z"/>
 </g>
</svg>